<svg style="height: 512px; width: 512px;" xmlns="http://www.w3.org/2000/svg" viewBox="0 0 512 512"><defs><clipPath id="icon-bg"><polygon points="384,477.7,128,477.7,0,256,128,34.3,384,34.3,512,256" fill="#4a4a4a" fill-opacity="1" transform="translate(-25.6, -25.6) scale(1.1, 1.1) rotate(0, 256, 256) skewX(0) skewY(0)"></polygon></clipPath></defs><polygon points="384,477.7,128,477.7,0,256,128,34.3,384,34.3,512,256" fill="#4a4a4a" fill-opacity="1"></polygon><g class="" style="" transform="translate(0,0)"><path d="m256 32-64 96 80 16-16 80 64-96-80-16 16-80zm-96 217c-1.9 0-9.8 3-15.8 6.7-2.8 1.7-5.3 3.5-7.2 4.8v119c1.9 1.3 4.4 3.1 7.2 4.8 6 3.7 13.9 6.7 15.8 6.7 1.9 0 9.8-3 15.8-6.7 5.9-3.7 10.6-7.3 10.6-7.3l2.5-2H201V265h-12.1l-2.5-2s-4.7-3.6-10.6-7.3c-6-3.7-13.9-6.7-15.8-6.7zm192 0c-1.9 0-9.8 3-15.8 6.7-5.9 3.7-10.6 7.3-10.6 7.3l-2.5 2H311v110h12.1l2.5 2s4.7 3.6 10.6 7.3c6 3.7 13.9 6.7 15.8 6.7 1.9 0 9.8-3 15.8-6.7 2.8-1.7 5.3-3.5 7.2-4.8v-119c-1.9-1.3-4.4-3.1-7.2-4.8-6-3.7-13.9-6.7-15.8-6.7zm-133 16v110h14V265h-14zm32 0v110h42V265h-42zM95.5 311c-18.8 0-36.6 9.2-49.94 22.7C32.22 347.1 23 365 23 384v106h18V384c0-13 6.78-27.1 17.32-37.7C68.85 335.8 82.8 329 95.5 329H119v-18H95.5zm297.5 0v18h22.9c13.1 0 27.1 6.8 37.7 17.4C464.2 357 471 371 471 384v106h18V384c0-19-9.2-37-22.7-50.4-13.4-13.4-31.4-22.6-50.4-22.6H393z" fill="#ffffff" fill-opacity="1" clip-path="url(#icon-bg)" transform="translate(25.6, 25.6) scale(0.9, 0.9) rotate(0, 256, 256) skewX(0) skewY(0)"></path></g></svg>